HIERARCHY
ROOT Hips
{
  OFFSET 0.0000 0.0000 0.0000
  CHANNELS 6 Xposition Yposition Zposition Zrotation Xrotation Yrotation
  JOINT LeftHip
  {
    OFFSET 3.4300 -0.0000 -0.0000
    CHANNELS 3 Zrotation Xrotation Yrotation
    JOINT LeftKnee
    {
      OFFSET 0.0000 -18.4700 -0.0000
      CHANNELS 3 Zrotation Xrotation Yrotation
      JOINT LeftAnkle
      {
        OFFSET 0.0000 -17.9500 0.0000
        CHANNELS 3 Zrotation Xrotation Yrotation
        End Site
        {
            OFFSET 0.0000 -3.1200 0.0000
        }
      }
    }
  }
  JOINT RightHip
  {
    OFFSET -3.4300 -0.0000 0.0000
    CHANNELS 3 Zrotation Xrotation Yrotation
    JOINT RightKnee
    {
      OFFSET -0.0000 -18.4700 0.0000
      CHANNELS 3 Zrotation Xrotation Yrotation
      JOINT RightAnkle
      {
        OFFSET 0.0000 -17.9500 0.0000
        CHANNELS 3 Zrotation Xrotation Yrotation
        End Site
        {
            OFFSET 0.0000 -3.1200 0.0000
        }
      }
    }
  }
  JOINT Chest
  {
    OFFSET 0.0000 4.5700 0.0000
    CHANNELS 3 Zrotation Xrotation Yrotation
    JOINT Chest2
    {
      OFFSET 0.0000 6.5700 0.0000
      CHANNELS 3 Zrotation Xrotation Yrotation
      JOINT LeftCollar
      {
        OFFSET 1.0600 4.1900 1.7600
        CHANNELS 3 Zrotation Xrotation Yrotation
        JOINT LeftShoulder
        {
          OFFSET 5.8100 0.0000 0.0000
          CHANNELS 3 Zrotation Xrotation Yrotation
          JOINT LeftElbow
          {
            OFFSET 0.0000 -12.0800 -0.0000
            CHANNELS 3 Zrotation Xrotation Yrotation
            JOINT LeftWrist
            {
              OFFSET -0.0000 -9.8200 0.0000
              CHANNELS 3 Zrotation Xrotation Yrotation
              End Site
              {
                  OFFSET 0.0000 -7.3700 0.0000
              }
            }
          }
        }
      }
      JOINT RightCollar
      {
        OFFSET -1.0600 4.1900 1.7600
        CHANNELS 3 Zrotation Xrotation Yrotation
        JOINT RightShoulder
        {
          OFFSET -6.0600 0.0000 0.0000
          CHANNELS 3 Zrotation Xrotation Yrotation
          JOINT RightElbow
          {
            OFFSET 0.0000 -11.0800 0.0000
            CHANNELS 3 Zrotation Xrotation Yrotation
            JOINT RightWrist
            {
              OFFSET 0.0000 -9.8200 0.0000
              CHANNELS 3 Zrotation Xrotation Yrotation
              End Site
              {
                  OFFSET 0.0000 -7.1400 0.0000
              }
            }
          }
        }
      }
    }
    JOINT Neck
    {
      OFFSET 0.0000 10.6200 0.0000
      CHANNELS 3 Zrotation Xrotation Yrotation
      JOINT Head
      {
        OFFSET -0.0000 5.1900 0.0000
        CHANNELS 3 Zrotation Xrotation Yrotation
        End Site
        {
            OFFSET 0.0000 4.1400 -0.0000
        }
      }
    }
  }
}
MOTION
Frames:	13
Frame Time:	0.033333
46.2865 41.7478 0.1670 -1.31 -0.87 -23.47 8.21 -7.00 -2.92 -2.83 13.28 2.78 -7.53 -6.17 -0.41 -9.98 0.53 -13.30 2.02 2.15 -34.16 1.62 5.42 0.27 -0.96 12.18 -4.00 0.00 0.00 0.00 5.59 -0.14 7.32 -16.17 -46.00 -74.35 -120.37 -72.43 -138.15 14.09 -3.51 0.65 11.40 0.47 -1.00 -34.45 -24.95 -40.77 26.09 -75.71 52.89 -28.80 4.46 0.70 6.98 12.56 -7.61 9.92 -14.10 -6.01 
46.2865 41.7478 0.1670 -1.31 -0.87 -23.47 8.21 -7.00 -2.92 -2.83 13.28 2.78 -7.53 -6.17 -0.41 -9.98 0.53 -13.30 2.02 2.15 -34.16 1.62 5.42 0.27 -0.96 12.18 -4.00 0.00 0.00 0.00 5.59 -0.14 7.32 -16.17 -46.00 -74.35 -120.37 -72.43 -138.15 14.09 -3.51 0.65 11.40 0.47 -1.00 -34.45 -24.95 -40.77 26.09 -75.71 52.89 -28.80 4.46 0.70 6.98 12.56 -7.61 9.92 -14.10 -6.01 
46.2825 41.7480 0.1637 -1.30 -0.83 -23.36 8.21 -7.04 -3.03 -2.84 13.21 2.79 -7.53 -6.10 -0.40 -9.99 0.51 -13.34 2.04 2.18 -34.24 1.61 5.41 0.27 -0.93 12.22 -4.03 0.00 0.00 0.00 5.53 -0.14 7.27 -15.98 -46.01 -74.26 -120.72 -72.38 -138.52 14.06 -3.52 0.65 11.37 0.46 -1.02 -34.34 -24.89 -40.73 26.16 -75.74 52.96 -28.86 4.47 0.71 7.03 12.40 -7.65 9.86 -13.94 -6.06 
46.2711 41.7441 0.1566 -1.29 -0.79 -23.23 8.23 -7.11 -3.15 -2.86 13.20 2.79 -7.54 -6.06 -0.40 -9.98 0.47 -13.41 2.08 2.23 -34.30 1.58 5.39 0.28 -0.84 12.27 -4.04 0.00 0.00 0.00 5.24 -0.14 7.06 -15.59 -46.11 -74.10 -120.56 -72.43 -138.36 14.11 -3.65 0.67 11.43 0.46 -1.01 -34.36 -24.85 -40.76 26.24 -75.75 52.99 -28.87 4.43 0.70 6.92 12.43 -7.65 9.91 -13.92 -6.11 
46.2583 41.7526 0.1563 -1.26 -0.77 -23.11 8.20 -7.14 -3.29 -2.84 13.14 2.80 -7.55 -6.00 -0.40 -9.97 0.49 -13.47 2.08 2.23 -34.35 1.56 5.39 0.28 -0.80 12.34 -4.02 0.00 0.00 0.00 4.98 -0.14 6.89 -15.29 -46.28 -73.98 -120.39 -72.45 -138.13 14.15 -3.69 0.67 11.55 0.47 -1.00 -34.46 -24.82 -40.80 26.27 -75.78 53.00 -28.83 4.41 0.69 6.82 12.54 -7.66 10.01 -13.99 -6.16 
46.2478 41.7580 0.1555 -1.22 -0.76 -23.00 8.16 -7.15 -3.41 -2.78 13.04 2.80 -7.58 -5.91 -0.39 -9.98 0.50 -13.55 2.06 2.21 -34.38 1.54 5.41 0.28 -0.80 12.38 -4.00 0.00 0.00 0.00 4.83 -0.14 6.78 -14.96 -46.38 -73.73 -120.35 -72.43 -138.02 14.16 -3.80 0.69 11.61 0.48 -0.97 -34.40 -24.87 -40.75 25.90 -75.68 52.79 -28.86 4.32 0.67 6.62 12.49 -7.62 10.18 -13.88 -6.23 
46.2339 41.7659 0.1595 -1.20 -0.75 -22.95 8.16 -7.12 -3.46 -2.77 12.90 2.78 -7.59 -5.81 -0.38 -9.96 0.51 -13.54 2.04 2.17 -34.45 1.52 5.44 0.28 -0.80 12.39 -3.97 0.00 0.00 0.00 5.05 -0.14 6.96 -15.33 -46.45 -73.88 -119.80 -72.51 -137.33 14.17 -3.99 0.71 11.50 0.47 -0.97 -34.23 -25.00 -40.69 25.57 -75.56 52.52 -28.80 4.26 0.65 6.54 12.46 -7.61 10.25 -13.81 -6.26 
46.2200 41.7716 0.1670 -1.19 -0.75 -22.89 8.15 -7.07 -3.50 -2.74 12.80 2.75 -7.60 -5.75 -0.38 -9.94 0.57 -13.50 2.05 2.06 -34.54 1.47 5.47 0.29 -0.81 12.42 -3.97 0.00 0.00 0.00 5.35 -0.14 7.19 -15.76 -46.43 -74.07 -119.74 -72.46 -137.23 14.19 -3.99 0.71 11.61 0.48 -0.93 -34.31 -25.06 -40.69 25.80 -75.68 52.73 -28.61 4.39 0.68 6.57 12.42 -7.62 10.22 -13.74 -6.27 
46.2136 41.7744 0.1637 -1.17 -0.74 -22.81 8.14 -7.10 -3.58 -2.72 12.79 2.75 -7.61 -5.72 -0.38 -9.95 0.59 -13.52 2.07 2.02 -34.62 1.42 5.49 0.30 -0.80 12.45 -4.00 0.00 0.00 0.00 5.44 -0.14 7.26 -15.79 -46.48 -74.08 -119.77 -72.45 -137.22 14.27 -4.05 0.72 11.67 0.49 -0.91 -34.29 -25.10 -40.64 25.78 -75.71 52.76 -28.55 4.40 0.68 6.50 12.29 -7.60 10.24 -13.61 -6.29 
46.1916 41.7749 0.1731 -1.17 -0.73 -22.78 8.15 -7.01 -3.60 -2.70 12.65 2.74 -7.63 -5.65 -0.37 -9.91 0.66 -13.47 2.08 1.95 -34.70 1.38 5.48 0.30 -0.78 12.47 -3.96 0.00 0.00 0.00 5.35 -0.14 7.19 -15.56 -46.53 -73.87 -119.90 -72.47 -137.30 14.17 -4.16 0.73 11.70 0.49 -0.90 -34.26 -25.13 -40.59 25.53 -75.61 52.53 -28.59 4.25 0.64 6.38 12.26 -7.58 10.33 -13.59 -6.33 
46.1727 41.7790 0.1759 -1.18 -0.73 -22.73 8.19 -6.98 -3.63 -2.73 12.62 2.74 -7.63 -5.63 -0.37 -9.89 0.68 -13.47 2.07 1.96 -34.74 1.38 5.48 0.30 -0.75 12.50 -3.96 0.00 0.00 0.00 5.45 -0.14 7.27 -15.78 -46.49 -74.02 -119.81 -72.49 -137.22 14.16 -4.19 0.74 11.77 0.49 -0.89 -34.29 -25.11 -40.58 25.49 -75.62 52.49 -28.59 4.20 0.63 6.40 12.20 -7.61 10.29 -13.57 -6.35 
46.1655 41.7766 0.1750 -1.19 -0.74 -22.65 8.19 -6.94 -3.71 -2.71 12.54 2.73 -7.64 -5.57 -0.37 -9.88 0.69 -13.52 2.08 2.02 -34.76 1.38 5.45 0.30 -0.69 12.54 -3.99 0.00 0.00 0.00 5.35 -0.14 7.20 -15.70 -46.57 -74.00 -119.84 -72.49 -137.19 14.17 -4.19 0.74 11.73 0.49 -0.90 -34.22 -25.11 -40.56 25.49 -75.61 52.49 -28.63 4.17 0.62 6.34 12.11 -7.61 10.33 -13.52 -6.39 
46.1522 41.7739 0.1801 -1.19 -0.74 -22.60 8.21 -6.90 -3.74 -2.71 12.49 2.71 -7.65 -5.53 -0.37 -9.87 0.72 -13.52 2.11 2.04 -34.80 1.36 5.42 0.30 -0.67 12.55 -3.98 0.00 0.00 0.00 5.35 -0.14 7.22 -15.74 -46.67 -74.06 -119.80 -72.51 -137.02 14.14 -4.23 0.74 11.70 0.49 -0.90 -34.13 -25.14 -40.54 25.33 -75.55 52.35 -28.63 4.09 0.60 6.30 12.17 -7.61 10.39 -13.63 -6.40 
